<svg width="100" height="100" viewBox="0 0 100 100" fill="none" xmlns="http://www.w3.org/2000/svg">
<g id="Frame 1">
<g id="Group 1">
<path id="Rectangle 2" d="M35.5 11.5H49.5C50.3284 11.5 51 12.1716 51 13V16C51 16.8284 50.3284 17.5 49.5 17.5H35.5C34.6716 17.5 34 16.8284 34 16V13C34 12.1716 34.6716 11.5 35.5 11.5Z" stroke="white" stroke-width="3"/>
<circle id="Ellipse 1" cx="42.5" cy="12" r="2" fill="white"/>
<g id="Rectangle 3">
<mask id="path-3-inside-1" fill="white">
<rect x="36.5" y="17" width="12" height="5" rx="1"/>
</mask>
<rect x="36.5" y="17" width="12" height="5" rx="1" stroke="white" stroke-width="4" mask="url(#path-3-inside-1)"/>
</g>
<path id="Vector 1" d="M82.5 42.9286V94H34.5L34.5 28H70M82.5 42.9286L70 28M82.5 42.9286H70V28" stroke="white" stroke-width="3"/>
<path id="Vector 2" d="M33.5 88.5H18C15.2386 88.5 13 86.2614 13 83.5V22.5C13 19.7386 15.2386 17.5 18 17.5H65C67.7614 17.5 70 19.7386 70 22.5V27.5" stroke="white" stroke-width="3"/>
<path id="Vector 3" d="M42.5 40.5H62.5" stroke="white" stroke-width="2"/>
<path id="Vector 4" d="M42.5 51H73.5" stroke="white" stroke-width="2"/>
<path id="Vector 5" d="M42.5 61H65.5" stroke="white" stroke-width="2"/>
<path id="Vector 6" d="M42.5 73H69.5" stroke="white" stroke-width="2"/>
<path id="Vector 7" d="M42.5 84H74.5" stroke="white" stroke-width="2"/>
</g>
</g>
</svg>
