<svg width="84" height="84" viewBox="0 0 84 84" fill="none" xmlns="http://www.w3.org/2000/svg">
<circle id="Ellipse 1" cx="42" cy="42" r="42" fill="#04D300"/>
<g id="Group 1">
<path id="Rectangle 1" d="M17.9037 41.0428C18.5529 40.1492 19.8036 39.9511 20.6973 40.6003L40.3282 54.863C41.2218 55.5123 41.4199 56.763 40.7707 57.6566L36.9644 62.8956C36.3151 63.7892 35.0644 63.9873 34.1708 63.3381L14.5398 49.0753C13.6462 48.4261 13.4481 47.1753 14.0973 46.2817L17.9037 41.0428Z" fill="white"/>
<path id="Rectangle 2" d="M30.6318 60.7253C29.7382 60.076 29.5401 58.8253 30.1893 57.9317L58.4866 18.9838C59.1358 18.0902 60.3866 17.8921 61.2802 18.5414L66.7064 22.4837C67.6 23.133 67.7981 24.3837 67.1488 25.2773L38.8516 64.2252C38.2023 65.1188 36.9516 65.3169 36.0579 64.6676L30.6318 60.7253Z" fill="white"/>
</g>
</svg>
